<?xml version="1.0" encoding="UTF-8"?>
<svg width="121px" height="118px" viewBox="0 0 121 118" version="1.1" xmlns="http://www.w3.org/2000/svg" xmlns:xlink="http://www.w3.org/1999/xlink">
    <title>Fill 5</title>
    <g id="Page-1" stroke="none" stroke-width="1" fill="none" fill-rule="evenodd">
        <path d="M0.161,60.571 C0.161,87.252 17.464,109.888 41.458,117.873 C44.476,118.432 45.584,116.563 45.584,114.968 C45.584,113.528 45.528,108.771 45.502,103.725 C28.702,107.378 25.157,96.6 25.157,96.6 C22.41,89.62 18.452,87.764 18.452,87.764 C12.973,84.016 18.865,84.093 18.865,84.093 C24.929,84.519 28.122,90.316 28.122,90.316 C33.508,99.548 42.249,96.879 45.695,95.336 C46.237,91.433 47.802,88.769 49.529,87.261 C36.116,85.734 22.016,80.556 22.016,57.417 C22.016,50.824 24.375,45.437 28.238,41.208 C27.611,39.687 25.544,33.545 28.823,25.227 C28.823,25.227 33.894,23.604 45.434,31.417 C50.251,30.079 55.417,29.408 60.549,29.385 C65.681,29.408 70.851,30.079 75.677,31.417 C87.203,23.604 92.267,25.227 92.267,25.227 C95.554,33.545 93.486,39.687 92.859,41.208 C96.731,45.437 99.074,50.824 99.074,57.417 C99.074,80.611 84.947,85.718 71.5,87.213 C73.666,89.087 75.596,92.762 75.596,98.396 C75.596,106.476 75.526,112.979 75.526,114.968 C75.526,116.575 76.613,118.458 79.674,117.865 C103.655,109.871 120.936,87.243 120.936,60.571 C120.936,27.219 93.899,0.183 60.549,0.183 C27.202,0.183 0.161,27.219 0.161,60.571 Z" id="Fill-5" fill="#161514"></path>
    </g>
</svg>